<mxfile host="app.diagrams.net" agent="Mozilla/5.0 (Windows NT 10.0; Win64; x64; rv:140.0) Gecko/20100101 Firefox/140.0" version="28.0.6">
  <diagram name="Page-1" id="ioRp4XjW2XV6dIwJ9LCr">
    <mxGraphModel dx="2916" dy="2211" grid="1" gridSize="10" guides="1" tooltips="1" connect="1" arrows="1" fold="1" page="1" pageScale="1" pageWidth="850" pageHeight="1100" math="0" shadow="0">
      <root>
        <mxCell id="0" />
        <mxCell id="1" parent="0" />
        <mxCell id="IIdC3HLPy3FbnqZgPG4K-2" value="&lt;div align=&quot;left&quot;&gt;xefi_link_rsp_dvhold_interface #(&lt;br&gt;&amp;nbsp; &amp;nbsp; &amp;nbsp; &amp;nbsp; &amp;nbsp; &amp;nbsp; &amp;nbsp; &amp;nbsp; &amp;nbsp; &amp;nbsp; &amp;nbsp; &amp;nbsp; &amp;nbsp; &amp;nbsp; &amp;nbsp; &amp;nbsp; &amp;nbsp;.NUM_XEFI_CMD_CHANNELS&amp;nbsp; &amp;nbsp; &amp;nbsp;(1),&lt;br&gt;&amp;nbsp; &amp;nbsp; &amp;nbsp; &amp;nbsp; &amp;nbsp; &amp;nbsp; &amp;nbsp; &amp;nbsp; &amp;nbsp; &amp;nbsp; &amp;nbsp; &amp;nbsp; &amp;nbsp; &amp;nbsp; &amp;nbsp; &amp;nbsp; &amp;nbsp;.NUM_XEFI_DATA_RSP_CHANNELS(2 ),&lt;br&gt;&amp;nbsp; &amp;nbsp; &amp;nbsp; &amp;nbsp; &amp;nbsp; &amp;nbsp; &amp;nbsp; &amp;nbsp; &amp;nbsp; &amp;nbsp; &amp;nbsp; &amp;nbsp; &amp;nbsp; &amp;nbsp; &amp;nbsp; &amp;nbsp; &amp;nbsp;.NUM_XEFI_COMP_CHANNELS&amp;nbsp; &amp;nbsp; (1),&lt;br&gt;&amp;nbsp; &amp;nbsp; &amp;nbsp; &amp;nbsp; &amp;nbsp; &amp;nbsp; &amp;nbsp; &amp;nbsp; &amp;nbsp; &amp;nbsp; &amp;nbsp; &amp;nbsp; &amp;nbsp; &amp;nbsp; &amp;nbsp; &amp;nbsp; &amp;nbsp;.NUM_XEFI_DATA_CHANNELS&amp;nbsp; &amp;nbsp; (1 ))&lt;br&gt;dsm_gacf_xefi_intf&lt;/div&gt;" style="rounded=0;whiteSpace=wrap;html=1;strokeWidth=2;fillColor=#1ba1e2;fontColor=#ffffff;strokeColor=#006EAF;align=left;" parent="1" vertex="1">
          <mxGeometry x="360" y="-80" width="425" height="550" as="geometry" />
        </mxCell>
        <mxCell id="IIdC3HLPy3FbnqZgPG4K-5" value="" style="endArrow=classic;html=1;rounded=0;strokeColor=light-dark(#00ff00, #ededed);" parent="1" edge="1">
          <mxGeometry width="50" height="50" relative="1" as="geometry">
            <mxPoint x="200" y="-60" as="sourcePoint" />
            <mxPoint x="360" y="-60" as="targetPoint" />
          </mxGeometry>
        </mxCell>
        <mxCell id="IIdC3HLPy3FbnqZgPG4K-6" value="&lt;div&gt;clk&lt;/div&gt;" style="edgeLabel;html=1;align=center;verticalAlign=middle;resizable=0;points=[];" parent="IIdC3HLPy3FbnqZgPG4K-5" vertex="1" connectable="0">
          <mxGeometry x="0.0125" y="2" relative="1" as="geometry">
            <mxPoint as="offset" />
          </mxGeometry>
        </mxCell>
        <mxCell id="IIdC3HLPy3FbnqZgPG4K-7" value="" style="endArrow=classic;html=1;rounded=0;strokeColor=light-dark(#00ff00, #ededed);" parent="1" edge="1">
          <mxGeometry width="50" height="50" relative="1" as="geometry">
            <mxPoint x="199" y="-40" as="sourcePoint" />
            <mxPoint x="359" y="-40" as="targetPoint" />
          </mxGeometry>
        </mxCell>
        <mxCell id="IIdC3HLPy3FbnqZgPG4K-8" value="&lt;div&gt;clk&lt;/div&gt;" style="edgeLabel;html=1;align=center;verticalAlign=middle;resizable=0;points=[];" parent="IIdC3HLPy3FbnqZgPG4K-7" vertex="1" connectable="0">
          <mxGeometry x="0.0125" y="2" relative="1" as="geometry">
            <mxPoint as="offset" />
          </mxGeometry>
        </mxCell>
        <mxCell id="IIdC3HLPy3FbnqZgPG4K-9" value="&lt;div&gt;rst_b&lt;/div&gt;" style="edgeLabel;html=1;align=center;verticalAlign=middle;resizable=0;points=[];" parent="IIdC3HLPy3FbnqZgPG4K-7" vertex="1" connectable="0">
          <mxGeometry x="-0.0125" y="1" relative="1" as="geometry">
            <mxPoint as="offset" />
          </mxGeometry>
        </mxCell>
        <mxCell id="IIdC3HLPy3FbnqZgPG4K-10" value="" style="endArrow=classic;html=1;rounded=0;strokeColor=light-dark(#00ff00, #ededed);" parent="1" edge="1">
          <mxGeometry width="50" height="50" relative="1" as="geometry">
            <mxPoint x="190" y="-10" as="sourcePoint" />
            <mxPoint x="359" y="-10" as="targetPoint" />
          </mxGeometry>
        </mxCell>
        <mxCell id="IIdC3HLPy3FbnqZgPG4K-11" value="&lt;div&gt;clk&lt;/div&gt;" style="edgeLabel;html=1;align=center;verticalAlign=middle;resizable=0;points=[];" parent="IIdC3HLPy3FbnqZgPG4K-10" vertex="1" connectable="0">
          <mxGeometry x="0.0125" y="2" relative="1" as="geometry">
            <mxPoint as="offset" />
          </mxGeometry>
        </mxCell>
        <mxCell id="IIdC3HLPy3FbnqZgPG4K-12" value="&lt;div&gt;req_rsp_cmd_dv&lt;/div&gt;" style="edgeLabel;html=1;align=center;verticalAlign=middle;resizable=0;points=[];" parent="IIdC3HLPy3FbnqZgPG4K-10" vertex="1" connectable="0">
          <mxGeometry x="-0.0125" y="1" relative="1" as="geometry">
            <mxPoint as="offset" />
          </mxGeometry>
        </mxCell>
        <mxCell id="IIdC3HLPy3FbnqZgPG4K-19" value="&lt;div&gt;&lt;br&gt;&lt;/div&gt;" style="edgeLabel;html=1;align=center;verticalAlign=middle;resizable=0;points=[];" parent="IIdC3HLPy3FbnqZgPG4K-10" vertex="1" connectable="0">
          <mxGeometry y="-1" relative="1" as="geometry">
            <mxPoint x="95" y="19" as="offset" />
          </mxGeometry>
        </mxCell>
        <mxCell id="IIdC3HLPy3FbnqZgPG4K-13" value="" style="endArrow=classic;html=1;rounded=0;strokeColor=light-dark(#00ff00, #ededed);" parent="1" edge="1">
          <mxGeometry width="50" height="50" relative="1" as="geometry">
            <mxPoint x="190" y="10" as="sourcePoint" />
            <mxPoint x="359" y="10" as="targetPoint" />
          </mxGeometry>
        </mxCell>
        <mxCell id="IIdC3HLPy3FbnqZgPG4K-14" value="&lt;div&gt;clk&lt;/div&gt;" style="edgeLabel;html=1;align=center;verticalAlign=middle;resizable=0;points=[];" parent="IIdC3HLPy3FbnqZgPG4K-13" vertex="1" connectable="0">
          <mxGeometry x="0.0125" y="2" relative="1" as="geometry">
            <mxPoint as="offset" />
          </mxGeometry>
        </mxCell>
        <mxCell id="IIdC3HLPy3FbnqZgPG4K-15" value="&lt;div&gt;req_rsp_cmd_pkt&lt;/div&gt;" style="edgeLabel;html=1;align=center;verticalAlign=middle;resizable=0;points=[];" parent="IIdC3HLPy3FbnqZgPG4K-13" vertex="1" connectable="0">
          <mxGeometry x="-0.0125" y="1" relative="1" as="geometry">
            <mxPoint as="offset" />
          </mxGeometry>
        </mxCell>
        <mxCell id="IIdC3HLPy3FbnqZgPG4K-16" value="" style="endArrow=classic;html=1;rounded=0;strokeColor=light-dark(#00ff00, #ededed);" parent="1" edge="1">
          <mxGeometry width="50" height="50" relative="1" as="geometry">
            <mxPoint x="190" y="30" as="sourcePoint" />
            <mxPoint x="359" y="30" as="targetPoint" />
          </mxGeometry>
        </mxCell>
        <mxCell id="IIdC3HLPy3FbnqZgPG4K-17" value="&lt;div&gt;clk&lt;/div&gt;" style="edgeLabel;html=1;align=center;verticalAlign=middle;resizable=0;points=[];" parent="IIdC3HLPy3FbnqZgPG4K-16" vertex="1" connectable="0">
          <mxGeometry x="0.0125" y="2" relative="1" as="geometry">
            <mxPoint as="offset" />
          </mxGeometry>
        </mxCell>
        <mxCell id="IIdC3HLPy3FbnqZgPG4K-18" value="&lt;div&gt;req_rsp_cmd_debugkey&lt;/div&gt;" style="edgeLabel;html=1;align=center;verticalAlign=middle;resizable=0;points=[];" parent="IIdC3HLPy3FbnqZgPG4K-16" vertex="1" connectable="0">
          <mxGeometry x="-0.0125" y="1" relative="1" as="geometry">
            <mxPoint as="offset" />
          </mxGeometry>
        </mxCell>
        <mxCell id="IIdC3HLPy3FbnqZgPG4K-22" value="" style="endArrow=classic;html=1;rounded=0;strokeColor=#B20000;fillColor=#e51400;" parent="1" edge="1">
          <mxGeometry width="50" height="50" relative="1" as="geometry">
            <mxPoint x="199" y="60" as="sourcePoint" />
            <mxPoint x="359" y="60" as="targetPoint" />
          </mxGeometry>
        </mxCell>
        <mxCell id="IIdC3HLPy3FbnqZgPG4K-23" value="&lt;div&gt;clk&lt;/div&gt;" style="edgeLabel;html=1;align=center;verticalAlign=middle;resizable=0;points=[];" parent="IIdC3HLPy3FbnqZgPG4K-22" vertex="1" connectable="0">
          <mxGeometry x="0.0125" y="2" relative="1" as="geometry">
            <mxPoint as="offset" />
          </mxGeometry>
        </mxCell>
        <mxCell id="IIdC3HLPy3FbnqZgPG4K-24" value="&lt;div&gt;req_rsp_data_dv&lt;/div&gt;" style="edgeLabel;html=1;align=center;verticalAlign=middle;resizable=0;points=[];" parent="IIdC3HLPy3FbnqZgPG4K-22" vertex="1" connectable="0">
          <mxGeometry x="-0.0125" y="1" relative="1" as="geometry">
            <mxPoint as="offset" />
          </mxGeometry>
        </mxCell>
        <mxCell id="IIdC3HLPy3FbnqZgPG4K-25" value="&lt;div&gt;&lt;br&gt;&lt;/div&gt;" style="edgeLabel;html=1;align=center;verticalAlign=middle;resizable=0;points=[];" parent="IIdC3HLPy3FbnqZgPG4K-22" vertex="1" connectable="0">
          <mxGeometry y="-1" relative="1" as="geometry">
            <mxPoint x="95" y="19" as="offset" />
          </mxGeometry>
        </mxCell>
        <mxCell id="IIdC3HLPy3FbnqZgPG4K-26" value="" style="endArrow=classic;html=1;rounded=0;strokeColor=#B20000;fillColor=#e51400;" parent="1" edge="1">
          <mxGeometry width="50" height="50" relative="1" as="geometry">
            <mxPoint x="199" y="80" as="sourcePoint" />
            <mxPoint x="359" y="80" as="targetPoint" />
          </mxGeometry>
        </mxCell>
        <mxCell id="IIdC3HLPy3FbnqZgPG4K-27" value="&lt;div&gt;clk&lt;/div&gt;" style="edgeLabel;html=1;align=center;verticalAlign=middle;resizable=0;points=[];" parent="IIdC3HLPy3FbnqZgPG4K-26" vertex="1" connectable="0">
          <mxGeometry x="0.0125" y="2" relative="1" as="geometry">
            <mxPoint as="offset" />
          </mxGeometry>
        </mxCell>
        <mxCell id="IIdC3HLPy3FbnqZgPG4K-28" value="&lt;div&gt;req_rsp_data_pkt&lt;/div&gt;" style="edgeLabel;html=1;align=center;verticalAlign=middle;resizable=0;points=[];" parent="IIdC3HLPy3FbnqZgPG4K-26" vertex="1" connectable="0">
          <mxGeometry x="-0.0125" y="1" relative="1" as="geometry">
            <mxPoint as="offset" />
          </mxGeometry>
        </mxCell>
        <mxCell id="IIdC3HLPy3FbnqZgPG4K-29" value="" style="endArrow=classic;html=1;rounded=0;fillColor=#e51400;strokeColor=#B20000;" parent="1" edge="1">
          <mxGeometry width="50" height="50" relative="1" as="geometry">
            <mxPoint x="199" y="100" as="sourcePoint" />
            <mxPoint x="359" y="100" as="targetPoint" />
          </mxGeometry>
        </mxCell>
        <mxCell id="IIdC3HLPy3FbnqZgPG4K-30" value="&lt;div&gt;clk&lt;/div&gt;" style="edgeLabel;html=1;align=center;verticalAlign=middle;resizable=0;points=[];" parent="IIdC3HLPy3FbnqZgPG4K-29" vertex="1" connectable="0">
          <mxGeometry x="0.0125" y="2" relative="1" as="geometry">
            <mxPoint as="offset" />
          </mxGeometry>
        </mxCell>
        <mxCell id="IIdC3HLPy3FbnqZgPG4K-31" value="&lt;div&gt;req_rsp_data_linklayertag&lt;/div&gt;" style="edgeLabel;html=1;align=center;verticalAlign=middle;resizable=0;points=[];" parent="IIdC3HLPy3FbnqZgPG4K-29" vertex="1" connectable="0">
          <mxGeometry x="-0.0125" y="1" relative="1" as="geometry">
            <mxPoint as="offset" />
          </mxGeometry>
        </mxCell>
        <mxCell id="IIdC3HLPy3FbnqZgPG4K-34" value="&lt;div style=&quot;line-height: 100%;&quot;&gt;&lt;h1 style=&quot;line-height: 100%;&quot; align=&quot;left&quot;&gt;Legend&lt;/h1&gt;&lt;div align=&quot;right&quot;&gt;&amp;nbsp; &amp;nbsp; &amp;nbsp; &amp;nbsp; &amp;nbsp; &amp;nbsp; &amp;nbsp;&lt;/div&gt;&lt;div align=&quot;right&quot;&gt;&lt;br&gt;&lt;/div&gt;&lt;div align=&quot;right&quot;&gt;&lt;br&gt;&lt;/div&gt;&lt;div align=&quot;right&quot;&gt;&lt;br&gt;&lt;/div&gt;&lt;div align=&quot;right&quot;&gt;= normal connection&lt;/div&gt;&lt;div&gt;&lt;br&gt;&lt;/div&gt;&lt;div&gt;&lt;br&gt;&lt;/div&gt;&lt;div&gt;= no connection&lt;/div&gt;&lt;div&gt;&lt;br&gt;&lt;/div&gt;&lt;div&gt;&lt;br&gt;&lt;/div&gt;&lt;div&gt;= extra internal logic&lt;/div&gt;&lt;div&gt;&lt;br&gt;&lt;/div&gt;&lt;div&gt;&lt;br&gt;&lt;/div&gt;&lt;/div&gt;" style="whiteSpace=wrap;html=1;aspect=fixed;align=left;" parent="1" vertex="1">
          <mxGeometry x="450" y="-490" width="250" height="250" as="geometry" />
        </mxCell>
        <mxCell id="IIdC3HLPy3FbnqZgPG4K-32" value="" style="endArrow=classic;html=1;rounded=0;strokeColor=light-dark(#00ff00, #ededed);" parent="1" edge="1">
          <mxGeometry width="50" height="50" relative="1" as="geometry">
            <mxPoint x="450" y="-380" as="sourcePoint" />
            <mxPoint x="540" y="-380" as="targetPoint" />
          </mxGeometry>
        </mxCell>
        <mxCell id="IIdC3HLPy3FbnqZgPG4K-33" value="&lt;div&gt;clk&lt;/div&gt;" style="edgeLabel;html=1;align=center;verticalAlign=middle;resizable=0;points=[];" parent="IIdC3HLPy3FbnqZgPG4K-32" vertex="1" connectable="0">
          <mxGeometry x="0.0125" y="2" relative="1" as="geometry">
            <mxPoint as="offset" />
          </mxGeometry>
        </mxCell>
        <mxCell id="IIdC3HLPy3FbnqZgPG4K-35" value="" style="endArrow=classic;html=1;rounded=0;strokeColor=#B20000;fillColor=#e51400;" parent="1" edge="1">
          <mxGeometry width="50" height="50" relative="1" as="geometry">
            <mxPoint x="450" y="-340" as="sourcePoint" />
            <mxPoint x="540" y="-340" as="targetPoint" />
          </mxGeometry>
        </mxCell>
        <mxCell id="IIdC3HLPy3FbnqZgPG4K-36" value="&lt;div&gt;clk&lt;/div&gt;" style="edgeLabel;html=1;align=center;verticalAlign=middle;resizable=0;points=[];" parent="IIdC3HLPy3FbnqZgPG4K-35" vertex="1" connectable="0">
          <mxGeometry x="0.0125" y="2" relative="1" as="geometry">
            <mxPoint as="offset" />
          </mxGeometry>
        </mxCell>
        <mxCell id="IIdC3HLPy3FbnqZgPG4K-37" value="" style="endArrow=classic;html=1;rounded=0;strokeColor=#B09500;fillColor=#e3c800;" parent="1" edge="1">
          <mxGeometry width="50" height="50" relative="1" as="geometry">
            <mxPoint x="450" y="-300" as="sourcePoint" />
            <mxPoint x="540" y="-300" as="targetPoint" />
          </mxGeometry>
        </mxCell>
        <mxCell id="IIdC3HLPy3FbnqZgPG4K-38" value="&lt;div&gt;clk&lt;/div&gt;" style="edgeLabel;html=1;align=center;verticalAlign=middle;resizable=0;points=[];" parent="IIdC3HLPy3FbnqZgPG4K-37" vertex="1" connectable="0">
          <mxGeometry x="0.0125" y="2" relative="1" as="geometry">
            <mxPoint as="offset" />
          </mxGeometry>
        </mxCell>
        <mxCell id="IIdC3HLPy3FbnqZgPG4K-39" value="" style="endArrow=classic;html=1;rounded=0;fillColor=#e3c800;strokeColor=#B09500;edgeStyle=elbowEdgeStyle;" parent="1" edge="1">
          <mxGeometry width="50" height="50" relative="1" as="geometry">
            <mxPoint x="130" y="185" as="sourcePoint" />
            <mxPoint x="360" y="184.76" as="targetPoint" />
          </mxGeometry>
        </mxCell>
        <mxCell id="IIdC3HLPy3FbnqZgPG4K-40" value="&lt;div&gt;clk&lt;/div&gt;" style="edgeLabel;html=1;align=center;verticalAlign=middle;resizable=0;points=[];" parent="IIdC3HLPy3FbnqZgPG4K-39" vertex="1" connectable="0">
          <mxGeometry x="0.0125" y="2" relative="1" as="geometry">
            <mxPoint as="offset" />
          </mxGeometry>
        </mxCell>
        <mxCell id="IIdC3HLPy3FbnqZgPG4K-41" value="&lt;div&gt;req_rsp_data_rsp_hold&lt;/div&gt;" style="edgeLabel;html=1;align=center;verticalAlign=middle;resizable=0;points=[];" parent="IIdC3HLPy3FbnqZgPG4K-39" vertex="1" connectable="0">
          <mxGeometry x="-0.0125" y="1" relative="1" as="geometry">
            <mxPoint as="offset" />
          </mxGeometry>
        </mxCell>
        <mxCell id="IIdC3HLPy3FbnqZgPG4K-42" value="" style="endArrow=classic;html=1;rounded=0;fillColor=#e51400;strokeColor=#B20000;" parent="1" edge="1">
          <mxGeometry width="50" height="50" relative="1" as="geometry">
            <mxPoint x="199" y="400" as="sourcePoint" />
            <mxPoint x="359" y="400" as="targetPoint" />
          </mxGeometry>
        </mxCell>
        <mxCell id="IIdC3HLPy3FbnqZgPG4K-43" value="&lt;div&gt;clk&lt;/div&gt;" style="edgeLabel;html=1;align=center;verticalAlign=middle;resizable=0;points=[];" parent="IIdC3HLPy3FbnqZgPG4K-42" vertex="1" connectable="0">
          <mxGeometry x="0.0125" y="2" relative="1" as="geometry">
            <mxPoint as="offset" />
          </mxGeometry>
        </mxCell>
        <mxCell id="IIdC3HLPy3FbnqZgPG4K-44" value="&lt;div&gt;req_rsp_comp_hold&lt;/div&gt;" style="edgeLabel;html=1;align=center;verticalAlign=middle;resizable=0;points=[];" parent="IIdC3HLPy3FbnqZgPG4K-42" vertex="1" connectable="0">
          <mxGeometry x="-0.0125" y="1" relative="1" as="geometry">
            <mxPoint as="offset" />
          </mxGeometry>
        </mxCell>
        <mxCell id="IIdC3HLPy3FbnqZgPG4K-45" value="" style="endArrow=classic;html=1;rounded=0;fillColor=#e51400;strokeColor=light-dark(#00ff00, #ffacac);" parent="1" edge="1">
          <mxGeometry width="50" height="50" relative="1" as="geometry">
            <mxPoint x="160" y="205" as="sourcePoint" />
            <mxPoint x="360" y="204.76" as="targetPoint" />
          </mxGeometry>
        </mxCell>
        <mxCell id="IIdC3HLPy3FbnqZgPG4K-46" value="&lt;div&gt;clk&lt;/div&gt;" style="edgeLabel;html=1;align=center;verticalAlign=middle;resizable=0;points=[];" parent="IIdC3HLPy3FbnqZgPG4K-45" vertex="1" connectable="0">
          <mxGeometry x="0.0125" y="2" relative="1" as="geometry">
            <mxPoint as="offset" />
          </mxGeometry>
        </mxCell>
        <mxCell id="IIdC3HLPy3FbnqZgPG4K-47" value="&lt;div&gt;req_rsp_data_rsp_credits&lt;/div&gt;" style="edgeLabel;html=1;align=center;verticalAlign=middle;resizable=0;points=[];" parent="IIdC3HLPy3FbnqZgPG4K-45" vertex="1" connectable="0">
          <mxGeometry x="-0.0125" y="1" relative="1" as="geometry">
            <mxPoint as="offset" />
          </mxGeometry>
        </mxCell>
        <mxCell id="IIdC3HLPy3FbnqZgPG4K-62" value="" style="endArrow=classic;html=1;rounded=0;strokeColor=#B20000;fillColor=#e51400;" parent="1" edge="1">
          <mxGeometry width="50" height="50" relative="1" as="geometry">
            <mxPoint x="785" y="80" as="sourcePoint" />
            <mxPoint x="945" y="80" as="targetPoint" />
          </mxGeometry>
        </mxCell>
        <mxCell id="IIdC3HLPy3FbnqZgPG4K-63" value="&lt;div&gt;rsp_req_data_hold&lt;/div&gt;" style="edgeLabel;html=1;align=center;verticalAlign=middle;resizable=0;points=[];" parent="IIdC3HLPy3FbnqZgPG4K-62" vertex="1" connectable="0">
          <mxGeometry x="0.0125" y="2" relative="1" as="geometry">
            <mxPoint as="offset" />
          </mxGeometry>
        </mxCell>
        <mxCell id="IIdC3HLPy3FbnqZgPG4K-64" value="&lt;div&gt;&lt;br&gt;&lt;/div&gt;" style="edgeLabel;html=1;align=center;verticalAlign=middle;resizable=0;points=[];" parent="IIdC3HLPy3FbnqZgPG4K-62" vertex="1" connectable="0">
          <mxGeometry x="-0.0125" y="1" relative="1" as="geometry">
            <mxPoint as="offset" />
          </mxGeometry>
        </mxCell>
        <mxCell id="IIdC3HLPy3FbnqZgPG4K-65" value="&lt;div&gt;&lt;br&gt;&lt;/div&gt;" style="edgeLabel;html=1;align=center;verticalAlign=middle;resizable=0;points=[];" parent="IIdC3HLPy3FbnqZgPG4K-62" vertex="1" connectable="0">
          <mxGeometry y="-1" relative="1" as="geometry">
            <mxPoint x="95" y="19" as="offset" />
          </mxGeometry>
        </mxCell>
        <mxCell id="IIdC3HLPy3FbnqZgPG4K-75" value="" style="endArrow=classic;html=1;rounded=0;fillColor=#e51400;strokeColor=light-dark(#00ff00, #ffacac);" parent="1" edge="1">
          <mxGeometry width="50" height="50" relative="1" as="geometry">
            <mxPoint x="785" y="400" as="sourcePoint" />
            <mxPoint x="945" y="400" as="targetPoint" />
          </mxGeometry>
        </mxCell>
        <mxCell id="IIdC3HLPy3FbnqZgPG4K-76" value="&lt;div&gt;clk&lt;/div&gt;" style="edgeLabel;html=1;align=center;verticalAlign=middle;resizable=0;points=[];" parent="IIdC3HLPy3FbnqZgPG4K-75" vertex="1" connectable="0">
          <mxGeometry x="0.0125" y="2" relative="1" as="geometry">
            <mxPoint as="offset" />
          </mxGeometry>
        </mxCell>
        <mxCell id="IIdC3HLPy3FbnqZgPG4K-77" value="&lt;div&gt;rsp_req_comp_debugkey&lt;/div&gt;" style="edgeLabel;html=1;align=center;verticalAlign=middle;resizable=0;points=[];" parent="IIdC3HLPy3FbnqZgPG4K-75" vertex="1" connectable="0">
          <mxGeometry x="-0.0125" y="1" relative="1" as="geometry">
            <mxPoint as="offset" />
          </mxGeometry>
        </mxCell>
        <mxCell id="IIdC3HLPy3FbnqZgPG4K-88" value="" style="endArrow=classic;html=1;rounded=0;strokeColor=light-dark(#00ff00, #ededed);" parent="1" edge="1">
          <mxGeometry width="50" height="50" relative="1" as="geometry">
            <mxPoint x="785" y="174.76" as="sourcePoint" />
            <mxPoint x="950" y="173" as="targetPoint" />
          </mxGeometry>
        </mxCell>
        <mxCell id="IIdC3HLPy3FbnqZgPG4K-89" value="rsp_req_data_rsp_dv" style="edgeLabel;html=1;align=center;verticalAlign=middle;resizable=0;points=[];" parent="IIdC3HLPy3FbnqZgPG4K-88" vertex="1" connectable="0">
          <mxGeometry x="0.0125" y="2" relative="1" as="geometry">
            <mxPoint x="9" as="offset" />
          </mxGeometry>
        </mxCell>
        <mxCell id="IIdC3HLPy3FbnqZgPG4K-90" value="&lt;div&gt;&lt;br&gt;&lt;/div&gt;" style="edgeLabel;html=1;align=center;verticalAlign=middle;resizable=0;points=[];" parent="IIdC3HLPy3FbnqZgPG4K-88" vertex="1" connectable="0">
          <mxGeometry y="-1" relative="1" as="geometry">
            <mxPoint x="95" y="19" as="offset" />
          </mxGeometry>
        </mxCell>
        <mxCell id="IIdC3HLPy3FbnqZgPG4K-91" value="" style="endArrow=classic;html=1;rounded=0;strokeColor=light-dark(#00ff00, #ededed);" parent="1" edge="1">
          <mxGeometry width="50" height="50" relative="1" as="geometry">
            <mxPoint x="785" y="194.76" as="sourcePoint" />
            <mxPoint x="950" y="195" as="targetPoint" />
          </mxGeometry>
        </mxCell>
        <mxCell id="IIdC3HLPy3FbnqZgPG4K-92" value="&lt;div&gt;clk&lt;/div&gt;" style="edgeLabel;html=1;align=center;verticalAlign=middle;resizable=0;points=[];" parent="IIdC3HLPy3FbnqZgPG4K-91" vertex="1" connectable="0">
          <mxGeometry x="0.0125" y="2" relative="1" as="geometry">
            <mxPoint as="offset" />
          </mxGeometry>
        </mxCell>
        <mxCell id="IIdC3HLPy3FbnqZgPG4K-93" value="rsp_req_data_rsp_pkt" style="edgeLabel;html=1;align=center;verticalAlign=middle;resizable=0;points=[];" parent="IIdC3HLPy3FbnqZgPG4K-91" vertex="1" connectable="0">
          <mxGeometry x="-0.0125" y="1" relative="1" as="geometry">
            <mxPoint as="offset" />
          </mxGeometry>
        </mxCell>
        <mxCell id="IIdC3HLPy3FbnqZgPG4K-94" value="" style="endArrow=classic;html=1;rounded=0;strokeColor=#B20000;fillColor=#e51400;" parent="1" edge="1">
          <mxGeometry width="50" height="50" relative="1" as="geometry">
            <mxPoint x="785" y="214.76" as="sourcePoint" />
            <mxPoint x="950" y="215" as="targetPoint" />
          </mxGeometry>
        </mxCell>
        <mxCell id="IIdC3HLPy3FbnqZgPG4K-95" value="&lt;div&gt;clk&lt;/div&gt;" style="edgeLabel;html=1;align=center;verticalAlign=middle;resizable=0;points=[];" parent="IIdC3HLPy3FbnqZgPG4K-94" vertex="1" connectable="0">
          <mxGeometry x="0.0125" y="2" relative="1" as="geometry">
            <mxPoint as="offset" />
          </mxGeometry>
        </mxCell>
        <mxCell id="IIdC3HLPy3FbnqZgPG4K-96" value="&lt;div&gt;req_rsp_cmd_debugkey&lt;/div&gt;" style="edgeLabel;html=1;align=center;verticalAlign=middle;resizable=0;points=[];" parent="IIdC3HLPy3FbnqZgPG4K-94" vertex="1" connectable="0">
          <mxGeometry x="-0.0125" y="1" relative="1" as="geometry">
            <mxPoint as="offset" />
          </mxGeometry>
        </mxCell>
        <mxCell id="IIdC3HLPy3FbnqZgPG4K-97" value="&lt;div&gt;&lt;br&gt;&lt;/div&gt;" style="edgeLabel;html=1;align=center;verticalAlign=middle;resizable=0;points=[];" parent="1" vertex="1" connectable="0">
          <mxGeometry x="960" y="360" as="geometry" />
        </mxCell>
        <mxCell id="IIdC3HLPy3FbnqZgPG4K-98" value="" style="endArrow=classic;html=1;rounded=0;strokeColor=light-dark(#00ff00, #ededed);" parent="1" edge="1">
          <mxGeometry width="50" height="50" relative="1" as="geometry">
            <mxPoint x="785" y="360" as="sourcePoint" />
            <mxPoint x="945" y="360" as="targetPoint" />
          </mxGeometry>
        </mxCell>
        <mxCell id="IIdC3HLPy3FbnqZgPG4K-99" value="&lt;div&gt;clk&lt;/div&gt;" style="edgeLabel;html=1;align=center;verticalAlign=middle;resizable=0;points=[];" parent="IIdC3HLPy3FbnqZgPG4K-98" vertex="1" connectable="0">
          <mxGeometry x="0.0125" y="2" relative="1" as="geometry">
            <mxPoint as="offset" />
          </mxGeometry>
        </mxCell>
        <mxCell id="IIdC3HLPy3FbnqZgPG4K-100" value="&lt;div&gt;rsp_req_comp_dv&lt;/div&gt;" style="edgeLabel;html=1;align=center;verticalAlign=middle;resizable=0;points=[];" parent="IIdC3HLPy3FbnqZgPG4K-98" vertex="1" connectable="0">
          <mxGeometry x="-0.0125" y="1" relative="1" as="geometry">
            <mxPoint as="offset" />
          </mxGeometry>
        </mxCell>
        <mxCell id="IIdC3HLPy3FbnqZgPG4K-101" value="" style="endArrow=classic;html=1;rounded=0;strokeColor=light-dark(#00ff00, #ededed);" parent="1" edge="1">
          <mxGeometry width="50" height="50" relative="1" as="geometry">
            <mxPoint x="785" y="380" as="sourcePoint" />
            <mxPoint x="945" y="380" as="targetPoint" />
          </mxGeometry>
        </mxCell>
        <mxCell id="IIdC3HLPy3FbnqZgPG4K-102" value="&lt;div&gt;clk&lt;/div&gt;" style="edgeLabel;html=1;align=center;verticalAlign=middle;resizable=0;points=[];" parent="IIdC3HLPy3FbnqZgPG4K-101" vertex="1" connectable="0">
          <mxGeometry x="0.0125" y="2" relative="1" as="geometry">
            <mxPoint as="offset" />
          </mxGeometry>
        </mxCell>
        <mxCell id="IIdC3HLPy3FbnqZgPG4K-103" value="&lt;div&gt;rsp_req_comp_pdk&lt;/div&gt;" style="edgeLabel;html=1;align=center;verticalAlign=middle;resizable=0;points=[];" parent="IIdC3HLPy3FbnqZgPG4K-101" vertex="1" connectable="0">
          <mxGeometry x="-0.0125" y="1" relative="1" as="geometry">
            <mxPoint as="offset" />
          </mxGeometry>
        </mxCell>
        <mxCell id="IIdC3HLPy3FbnqZgPG4K-104" value="&lt;div&gt;&lt;span style=&quot;text-align: left;&quot;&gt;gt_credit_inf_put_target #(.T_data (gt_xefi_cmd_t))&lt;/span&gt;&lt;/div&gt;&lt;div&gt;&lt;span style=&quot;text-align: left;&quot;&gt;dsm_gacf_inf_&lt;/span&gt;&lt;/div&gt;&lt;div&gt;&lt;span style=&quot;text-align: left;&quot;&gt;put_target_cmd&lt;/span&gt;&lt;/div&gt;" style="rounded=0;whiteSpace=wrap;html=1;fillColor=#b0e3e6;strokeColor=#0e8088;" parent="1" vertex="1">
          <mxGeometry x="-180" y="-100" width="130" height="350" as="geometry" />
        </mxCell>
        <mxCell id="IIdC3HLPy3FbnqZgPG4K-105" value="" style="endArrow=classic;html=1;rounded=0;strokeColor=light-dark(#00ff00, #ededed);entryX=-0.009;entryY=0.028;entryDx=0;entryDy=0;entryPerimeter=0;" parent="1" target="IIdC3HLPy3FbnqZgPG4K-104" edge="1">
          <mxGeometry width="50" height="50" relative="1" as="geometry">
            <mxPoint x="-270" y="-90" as="sourcePoint" />
            <mxPoint x="-200" y="-89.95000000000027" as="targetPoint" />
          </mxGeometry>
        </mxCell>
        <mxCell id="IIdC3HLPy3FbnqZgPG4K-106" value="&lt;div&gt;clk&lt;/div&gt;" style="edgeLabel;html=1;align=center;verticalAlign=middle;resizable=0;points=[];" parent="IIdC3HLPy3FbnqZgPG4K-105" vertex="1" connectable="0">
          <mxGeometry x="0.0125" y="2" relative="1" as="geometry">
            <mxPoint as="offset" />
          </mxGeometry>
        </mxCell>
        <mxCell id="IIdC3HLPy3FbnqZgPG4K-107" value="" style="endArrow=classic;html=1;rounded=0;strokeColor=light-dark(#00ff00, #ededed);entryX=-0.027;entryY=0.084;entryDx=0;entryDy=0;entryPerimeter=0;" parent="1" target="IIdC3HLPy3FbnqZgPG4K-104" edge="1">
          <mxGeometry width="50" height="50" relative="1" as="geometry">
            <mxPoint x="-270.65" y="-70" as="sourcePoint" />
            <mxPoint x="-180" y="-70" as="targetPoint" />
          </mxGeometry>
        </mxCell>
        <mxCell id="IIdC3HLPy3FbnqZgPG4K-108" value="&lt;div&gt;gclk&lt;/div&gt;" style="edgeLabel;html=1;align=center;verticalAlign=middle;resizable=0;points=[];" parent="IIdC3HLPy3FbnqZgPG4K-107" vertex="1" connectable="0">
          <mxGeometry x="0.0125" y="2" relative="1" as="geometry">
            <mxPoint as="offset" />
          </mxGeometry>
        </mxCell>
        <mxCell id="cW7wmebTphSwqiHUDdLL-1" value="" style="endArrow=classic;html=1;rounded=0;edgeStyle=orthogonalEdgeStyle;strokeColor=light-dark(#00ff00, #ededed);" parent="1" edge="1">
          <mxGeometry relative="1" as="geometry">
            <mxPoint x="785" y="-20" as="sourcePoint" />
            <mxPoint x="930" y="-180" as="targetPoint" />
          </mxGeometry>
        </mxCell>
        <mxCell id="cW7wmebTphSwqiHUDdLL-2" value="rsp_req_cmd_hold" style="edgeLabel;resizable=0;html=1;;align=center;verticalAlign=middle;" parent="cW7wmebTphSwqiHUDdLL-1" connectable="0" vertex="1">
          <mxGeometry relative="1" as="geometry" />
        </mxCell>
        <mxCell id="cW7wmebTphSwqiHUDdLL-3" value="" style="endArrow=classic;html=1;rounded=0;edgeStyle=orthogonalEdgeStyle;entryX=0.5;entryY=0;entryDx=0;entryDy=0;strokeColor=light-dark(#00ff00, #ededed);" parent="1" target="IIdC3HLPy3FbnqZgPG4K-104" edge="1">
          <mxGeometry relative="1" as="geometry">
            <mxPoint x="930" y="-179" as="sourcePoint" />
            <mxPoint x="200" y="60" as="targetPoint" />
          </mxGeometry>
        </mxCell>
        <mxCell id="cW7wmebTphSwqiHUDdLL-4" value="rsp_req_cmd_hold" style="edgeLabel;resizable=0;html=1;;align=center;verticalAlign=middle;" parent="cW7wmebTphSwqiHUDdLL-3" connectable="0" vertex="1">
          <mxGeometry relative="1" as="geometry" />
        </mxCell>
        <mxCell id="cW7wmebTphSwqiHUDdLL-5" value="&lt;div&gt;&lt;span style=&quot;text-align: left;&quot;&gt;gt_credit_inf_put_sender #(.T_data (gt_xefi_data_t))&lt;/span&gt;&lt;/div&gt;&lt;div&gt;&lt;span style=&quot;text-align: left;&quot;&gt;dsm_gacf_inf_&lt;/span&gt;&lt;/div&gt;&lt;div&gt;&lt;span style=&quot;text-align: left;&quot;&gt;put_target_data&lt;/span&gt;&lt;/div&gt;" style="rounded=0;whiteSpace=wrap;html=1;fillColor=#b0e3e6;strokeColor=#0e8088;" parent="1" vertex="1">
          <mxGeometry x="1000" y="115" width="130" height="160" as="geometry" />
        </mxCell>
        <mxCell id="cW7wmebTphSwqiHUDdLL-7" value="" style="endArrow=classic;html=1;rounded=0;fillColor=#e3c800;strokeColor=#B09500;edgeStyle=orthogonalEdgeStyle;" parent="1" edge="1">
          <mxGeometry width="50" height="50" relative="1" as="geometry">
            <mxPoint x="1130" y="240.24" as="sourcePoint" />
            <mxPoint x="1360" y="520" as="targetPoint" />
          </mxGeometry>
        </mxCell>
        <mxCell id="cW7wmebTphSwqiHUDdLL-8" value="&lt;div&gt;req_rsp_data_rsp_hold&lt;/div&gt;" style="edgeLabel;html=1;align=center;verticalAlign=middle;resizable=0;points=[];" parent="cW7wmebTphSwqiHUDdLL-7" vertex="1" connectable="0">
          <mxGeometry x="0.0125" y="2" relative="1" as="geometry">
            <mxPoint as="offset" />
          </mxGeometry>
        </mxCell>
        <mxCell id="cW7wmebTphSwqiHUDdLL-13" value="" style="endArrow=classic;html=1;rounded=0;fillColor=#e3c800;strokeColor=#B09500;edgeStyle=orthogonalEdgeStyle;" parent="1" edge="1">
          <mxGeometry width="50" height="50" relative="1" as="geometry">
            <mxPoint x="1360" y="520" as="sourcePoint" />
            <mxPoint x="130" y="190" as="targetPoint" />
          </mxGeometry>
        </mxCell>
        <mxCell id="cW7wmebTphSwqiHUDdLL-14" value="&lt;div&gt;req_rsp_data_rsp_hold&lt;/div&gt;" style="edgeLabel;html=1;align=center;verticalAlign=middle;resizable=0;points=[];" parent="cW7wmebTphSwqiHUDdLL-13" vertex="1" connectable="0">
          <mxGeometry x="0.0125" y="2" relative="1" as="geometry">
            <mxPoint as="offset" />
          </mxGeometry>
        </mxCell>
        <mxCell id="cW7wmebTphSwqiHUDdLL-15" value="" style="endArrow=classic;html=1;rounded=0;fillColor=#e51400;strokeColor=light-dark(#00ff00, #ffacac);edgeStyle=orthogonalEdgeStyle;" parent="1" edge="1">
          <mxGeometry width="50" height="50" relative="1" as="geometry">
            <mxPoint x="1130" y="260" as="sourcePoint" />
            <mxPoint x="1290" y="500" as="targetPoint" />
          </mxGeometry>
        </mxCell>
        <mxCell id="cW7wmebTphSwqiHUDdLL-16" value="&lt;div&gt;&lt;div&gt;req_rsp_data_rsp_credits&lt;/div&gt;&lt;/div&gt;" style="edgeLabel;html=1;align=center;verticalAlign=middle;resizable=0;points=[];" parent="cW7wmebTphSwqiHUDdLL-15" vertex="1" connectable="0">
          <mxGeometry x="0.0125" y="2" relative="1" as="geometry">
            <mxPoint as="offset" />
          </mxGeometry>
        </mxCell>
        <mxCell id="cW7wmebTphSwqiHUDdLL-17" value="&lt;div&gt;&lt;br&gt;&lt;/div&gt;" style="edgeLabel;html=1;align=center;verticalAlign=middle;resizable=0;points=[];" parent="cW7wmebTphSwqiHUDdLL-15" vertex="1" connectable="0">
          <mxGeometry x="-0.0125" y="1" relative="1" as="geometry">
            <mxPoint as="offset" />
          </mxGeometry>
        </mxCell>
        <mxCell id="cW7wmebTphSwqiHUDdLL-21" value="" style="endArrow=classic;html=1;rounded=0;fillColor=#e51400;strokeColor=light-dark(#00ff00, #ffacac);edgeStyle=orthogonalEdgeStyle;" parent="1" edge="1">
          <mxGeometry width="50" height="50" relative="1" as="geometry">
            <mxPoint x="1290" y="500" as="sourcePoint" />
            <mxPoint x="160" y="210" as="targetPoint" />
            <Array as="points">
              <mxPoint x="1290" y="500" />
              <mxPoint x="1290" y="501" />
              <mxPoint x="160" y="501" />
            </Array>
          </mxGeometry>
        </mxCell>
        <mxCell id="cW7wmebTphSwqiHUDdLL-22" value="&lt;div&gt;&lt;div&gt;req_rsp_data_rsp_credits&lt;/div&gt;&lt;/div&gt;" style="edgeLabel;html=1;align=center;verticalAlign=middle;resizable=0;points=[];" parent="cW7wmebTphSwqiHUDdLL-21" vertex="1" connectable="0">
          <mxGeometry x="0.0125" y="2" relative="1" as="geometry">
            <mxPoint as="offset" />
          </mxGeometry>
        </mxCell>
        <mxCell id="cW7wmebTphSwqiHUDdLL-23" value="&lt;div&gt;&lt;br&gt;&lt;/div&gt;" style="edgeLabel;html=1;align=center;verticalAlign=middle;resizable=0;points=[];" parent="cW7wmebTphSwqiHUDdLL-21" vertex="1" connectable="0">
          <mxGeometry x="-0.0125" y="1" relative="1" as="geometry">
            <mxPoint as="offset" />
          </mxGeometry>
        </mxCell>
        <mxCell id="cW7wmebTphSwqiHUDdLL-24" value="&lt;div&gt;&lt;span style=&quot;text-align: left;&quot;&gt;gt_credit_inf_put_sender #(.T_data (gt_xefi_comp_t))&lt;/span&gt;&lt;/div&gt;&lt;div&gt;&lt;span style=&quot;text-align: left;&quot;&gt;dsm_gacf_inf_&lt;/span&gt;&lt;/div&gt;&lt;div&gt;&lt;span style=&quot;text-align: left;&quot;&gt;put_target_comp&lt;/span&gt;&lt;/div&gt;" style="rounded=0;whiteSpace=wrap;html=1;fillColor=#b0e3e6;strokeColor=#0e8088;" parent="1" vertex="1">
          <mxGeometry x="1000" y="300" width="130" height="160" as="geometry" />
        </mxCell>
        <mxCell id="cW7wmebTphSwqiHUDdLL-25" value="" style="endArrow=classic;html=1;rounded=0;strokeColor=light-dark(#00ff00, #ededed);entryX=0;entryY=0.063;entryDx=0;entryDy=0;entryPerimeter=0;" parent="1" edge="1">
          <mxGeometry width="50" height="50" relative="1" as="geometry">
            <mxPoint x="-270" y="-50" as="sourcePoint" />
            <mxPoint x="-180" y="-50" as="targetPoint" />
          </mxGeometry>
        </mxCell>
        <mxCell id="cW7wmebTphSwqiHUDdLL-26" value="rst_b" style="edgeLabel;html=1;align=center;verticalAlign=middle;resizable=0;points=[];" parent="cW7wmebTphSwqiHUDdLL-25" vertex="1" connectable="0">
          <mxGeometry x="0.0125" y="2" relative="1" as="geometry">
            <mxPoint as="offset" />
          </mxGeometry>
        </mxCell>
        <mxCell id="cW7wmebTphSwqiHUDdLL-27" value="" style="endArrow=classic;html=1;rounded=0;strokeColor=light-dark(#00ff00, #ededed);entryX=0;entryY=0.063;entryDx=0;entryDy=0;entryPerimeter=0;" parent="1" edge="1">
          <mxGeometry width="50" height="50" relative="1" as="geometry">
            <mxPoint x="-270" y="-30" as="sourcePoint" />
            <mxPoint x="-180" y="-30" as="targetPoint" />
          </mxGeometry>
        </mxCell>
        <mxCell id="cW7wmebTphSwqiHUDdLL-28" value="idle" style="edgeLabel;html=1;align=center;verticalAlign=middle;resizable=0;points=[];" parent="cW7wmebTphSwqiHUDdLL-27" vertex="1" connectable="0">
          <mxGeometry x="0.0125" y="2" relative="1" as="geometry">
            <mxPoint as="offset" />
          </mxGeometry>
        </mxCell>
        <mxCell id="cW7wmebTphSwqiHUDdLL-34" value="" style="endArrow=classic;html=1;rounded=0;strokeColor=#B20000;entryX=0;entryY=0.063;entryDx=0;entryDy=0;entryPerimeter=0;fillColor=#e51400;" parent="1" edge="1">
          <mxGeometry width="50" height="50" relative="1" as="geometry">
            <mxPoint x="-270" y="-10" as="sourcePoint" />
            <mxPoint x="-180" y="-10" as="targetPoint" />
          </mxGeometry>
        </mxCell>
        <mxCell id="cW7wmebTphSwqiHUDdLL-35" value="cp_creditrun" style="edgeLabel;html=1;align=center;verticalAlign=middle;resizable=0;points=[];" parent="cW7wmebTphSwqiHUDdLL-34" vertex="1" connectable="0">
          <mxGeometry x="0.0125" y="2" relative="1" as="geometry">
            <mxPoint as="offset" />
          </mxGeometry>
        </mxCell>
        <mxCell id="cW7wmebTphSwqiHUDdLL-37" value="" style="endArrow=classic;html=1;rounded=0;strokeColor=light-dark(#00ff00, #ededed);entryX=0;entryY=0.063;entryDx=0;entryDy=0;entryPerimeter=0;" parent="1" edge="1">
          <mxGeometry width="50" height="50" relative="1" as="geometry">
            <mxPoint x="-370" y="10" as="sourcePoint" />
            <mxPoint x="-180" y="10" as="targetPoint" />
          </mxGeometry>
        </mxCell>
        <mxCell id="cW7wmebTphSwqiHUDdLL-38" value="sender_target_inf_up" style="edgeLabel;html=1;align=center;verticalAlign=middle;resizable=0;points=[];" parent="cW7wmebTphSwqiHUDdLL-37" vertex="1" connectable="0">
          <mxGeometry x="0.0125" y="2" relative="1" as="geometry">
            <mxPoint as="offset" />
          </mxGeometry>
        </mxCell>
        <mxCell id="cW7wmebTphSwqiHUDdLL-42" value="" style="endArrow=classic;html=1;rounded=0;strokeColor=light-dark(#00ff00, #ededed);entryX=0;entryY=0.063;entryDx=0;entryDy=0;entryPerimeter=0;" parent="1" edge="1">
          <mxGeometry width="50" height="50" relative="1" as="geometry">
            <mxPoint x="-270" y="30" as="sourcePoint" />
            <mxPoint x="-180" y="30" as="targetPoint" />
          </mxGeometry>
        </mxCell>
        <mxCell id="cW7wmebTphSwqiHUDdLL-43" value="credit_run" style="edgeLabel;html=1;align=center;verticalAlign=middle;resizable=0;points=[];" parent="cW7wmebTphSwqiHUDdLL-42" vertex="1" connectable="0">
          <mxGeometry x="0.0125" y="2" relative="1" as="geometry">
            <mxPoint as="offset" />
          </mxGeometry>
        </mxCell>
        <mxCell id="cW7wmebTphSwqiHUDdLL-44" value="" style="endArrow=classic;html=1;rounded=0;strokeColor=light-dark(#00ff00, #ededed);entryX=0;entryY=0.063;entryDx=0;entryDy=0;entryPerimeter=0;" parent="1" edge="1">
          <mxGeometry width="50" height="50" relative="1" as="geometry">
            <mxPoint x="-270" y="50" as="sourcePoint" />
            <mxPoint x="-180" y="50" as="targetPoint" />
          </mxGeometry>
        </mxCell>
        <mxCell id="cW7wmebTphSwqiHUDdLL-45" value="cp_creditrun" style="edgeLabel;html=1;align=center;verticalAlign=middle;resizable=0;points=[];" parent="cW7wmebTphSwqiHUDdLL-44" vertex="1" connectable="0">
          <mxGeometry x="0.0125" y="2" relative="1" as="geometry">
            <mxPoint as="offset" />
          </mxGeometry>
        </mxCell>
        <mxCell id="cW7wmebTphSwqiHUDdLL-47" value="" style="endArrow=classic;html=1;rounded=0;strokeColor=light-dark(#00ff00, #ededed);" parent="1" edge="1">
          <mxGeometry width="50" height="50" relative="1" as="geometry">
            <mxPoint x="-50" y="-90" as="sourcePoint" />
            <mxPoint x="100" y="-90" as="targetPoint" />
          </mxGeometry>
        </mxCell>
        <mxCell id="cW7wmebTphSwqiHUDdLL-48" value="target_sender_inf_up" style="edgeLabel;html=1;align=center;verticalAlign=middle;resizable=0;points=[];" parent="cW7wmebTphSwqiHUDdLL-47" vertex="1" connectable="0">
          <mxGeometry x="0.0125" y="2" relative="1" as="geometry">
            <mxPoint as="offset" />
          </mxGeometry>
        </mxCell>
        <mxCell id="nC46mDoOltywbodtPgj2-1" value="" style="endArrow=classic;html=1;rounded=0;strokeColor=light-dark(#00ff00, #ededed);" edge="1" parent="1">
          <mxGeometry width="50" height="50" relative="1" as="geometry">
            <mxPoint x="-50" y="-70" as="sourcePoint" />
            <mxPoint x="100" y="-70" as="targetPoint" />
          </mxGeometry>
        </mxCell>
        <mxCell id="nC46mDoOltywbodtPgj2-2" value="oput" style="edgeLabel;html=1;align=center;verticalAlign=middle;resizable=0;points=[];" vertex="1" connectable="0" parent="nC46mDoOltywbodtPgj2-1">
          <mxGeometry x="0.0125" y="2" relative="1" as="geometry">
            <mxPoint as="offset" />
          </mxGeometry>
        </mxCell>
        <mxCell id="nC46mDoOltywbodtPgj2-3" value="" style="endArrow=classic;html=1;rounded=0;strokeColor=#B20000;fillColor=#e51400;" edge="1" parent="1">
          <mxGeometry width="50" height="50" relative="1" as="geometry">
            <mxPoint x="-50" y="-50" as="sourcePoint" />
            <mxPoint x="100" y="-50" as="targetPoint" />
          </mxGeometry>
        </mxCell>
        <mxCell id="nC46mDoOltywbodtPgj2-4" value="otag" style="edgeLabel;html=1;align=center;verticalAlign=middle;resizable=0;points=[];" vertex="1" connectable="0" parent="nC46mDoOltywbodtPgj2-3">
          <mxGeometry x="0.0125" y="2" relative="1" as="geometry">
            <mxPoint as="offset" />
          </mxGeometry>
        </mxCell>
        <mxCell id="nC46mDoOltywbodtPgj2-5" value="" style="endArrow=classic;html=1;rounded=0;strokeColor=light-dark(#00ff00, #ededed);" edge="1" parent="1">
          <mxGeometry width="50" height="50" relative="1" as="geometry">
            <mxPoint x="-50" y="-30" as="sourcePoint" />
            <mxPoint x="100" y="-30" as="targetPoint" />
          </mxGeometry>
        </mxCell>
        <mxCell id="nC46mDoOltywbodtPgj2-6" value="odata" style="edgeLabel;html=1;align=center;verticalAlign=middle;resizable=0;points=[];" vertex="1" connectable="0" parent="nC46mDoOltywbodtPgj2-5">
          <mxGeometry x="0.0125" y="2" relative="1" as="geometry">
            <mxPoint as="offset" />
          </mxGeometry>
        </mxCell>
        <mxCell id="nC46mDoOltywbodtPgj2-7" value="" style="endArrow=classic;html=1;rounded=0;strokeColor=light-dark(#00ff00, #ededed);" edge="1" parent="1">
          <mxGeometry width="50" height="50" relative="1" as="geometry">
            <mxPoint x="-50" y="-10" as="sourcePoint" />
            <mxPoint x="100" y="-10" as="targetPoint" />
          </mxGeometry>
        </mxCell>
        <mxCell id="nC46mDoOltywbodtPgj2-8" value="odebugket" style="edgeLabel;html=1;align=center;verticalAlign=middle;resizable=0;points=[];" vertex="1" connectable="0" parent="nC46mDoOltywbodtPgj2-7">
          <mxGeometry x="0.0125" y="2" relative="1" as="geometry">
            <mxPoint as="offset" />
          </mxGeometry>
        </mxCell>
        <mxCell id="nC46mDoOltywbodtPgj2-9" value="" style="endArrow=classic;html=1;rounded=0;strokeColor=#B20000;fillColor=#e51400;" edge="1" parent="1">
          <mxGeometry width="50" height="50" relative="1" as="geometry">
            <mxPoint x="-50" y="10" as="sourcePoint" />
            <mxPoint x="100" y="10" as="targetPoint" />
          </mxGeometry>
        </mxCell>
        <mxCell id="nC46mDoOltywbodtPgj2-10" value="odata_en" style="edgeLabel;html=1;align=center;verticalAlign=middle;resizable=0;points=[];" vertex="1" connectable="0" parent="nC46mDoOltywbodtPgj2-9">
          <mxGeometry x="0.0125" y="2" relative="1" as="geometry">
            <mxPoint as="offset" />
          </mxGeometry>
        </mxCell>
        <mxCell id="nC46mDoOltywbodtPgj2-13" value="" style="endArrow=classic;html=1;rounded=0;strokeColor=light-dark(#00ff00, #ededed);" edge="1" parent="1">
          <mxGeometry width="50" height="50" relative="1" as="geometry">
            <mxPoint x="-330" y="70" as="sourcePoint" />
            <mxPoint x="-180" y="70" as="targetPoint" />
          </mxGeometry>
        </mxCell>
        <mxCell id="nC46mDoOltywbodtPgj2-14" value="iput" style="edgeLabel;html=1;align=center;verticalAlign=middle;resizable=0;points=[];" vertex="1" connectable="0" parent="nC46mDoOltywbodtPgj2-13">
          <mxGeometry x="0.0125" y="2" relative="1" as="geometry">
            <mxPoint as="offset" />
          </mxGeometry>
        </mxCell>
        <mxCell id="nC46mDoOltywbodtPgj2-15" value="" style="endArrow=classic;html=1;rounded=0;strokeColor=#B20000;fillColor=#e51400;" edge="1" parent="1">
          <mxGeometry width="50" height="50" relative="1" as="geometry">
            <mxPoint x="-330" y="90" as="sourcePoint" />
            <mxPoint x="-180" y="90" as="targetPoint" />
          </mxGeometry>
        </mxCell>
        <mxCell id="nC46mDoOltywbodtPgj2-16" value="itag" style="edgeLabel;html=1;align=center;verticalAlign=middle;resizable=0;points=[];" vertex="1" connectable="0" parent="nC46mDoOltywbodtPgj2-15">
          <mxGeometry x="0.0125" y="2" relative="1" as="geometry">
            <mxPoint as="offset" />
          </mxGeometry>
        </mxCell>
        <mxCell id="nC46mDoOltywbodtPgj2-17" value="" style="endArrow=classic;html=1;rounded=0;strokeColor=light-dark(#00ff00, #ededed);" edge="1" parent="1">
          <mxGeometry width="50" height="50" relative="1" as="geometry">
            <mxPoint x="-330" y="110" as="sourcePoint" />
            <mxPoint x="-180" y="110" as="targetPoint" />
          </mxGeometry>
        </mxCell>
        <mxCell id="nC46mDoOltywbodtPgj2-18" value="idata" style="edgeLabel;html=1;align=center;verticalAlign=middle;resizable=0;points=[];" vertex="1" connectable="0" parent="nC46mDoOltywbodtPgj2-17">
          <mxGeometry x="0.0125" y="2" relative="1" as="geometry">
            <mxPoint as="offset" />
          </mxGeometry>
        </mxCell>
        <mxCell id="nC46mDoOltywbodtPgj2-19" value="" style="endArrow=classic;html=1;rounded=0;strokeColor=light-dark(#00ff00, #ededed);" edge="1" parent="1">
          <mxGeometry width="50" height="50" relative="1" as="geometry">
            <mxPoint x="-330" y="130" as="sourcePoint" />
            <mxPoint x="-180" y="130" as="targetPoint" />
          </mxGeometry>
        </mxCell>
        <mxCell id="nC46mDoOltywbodtPgj2-20" value="idebugkey" style="edgeLabel;html=1;align=center;verticalAlign=middle;resizable=0;points=[];" vertex="1" connectable="0" parent="nC46mDoOltywbodtPgj2-19">
          <mxGeometry x="0.0125" y="2" relative="1" as="geometry">
            <mxPoint as="offset" />
          </mxGeometry>
        </mxCell>
        <mxCell id="nC46mDoOltywbodtPgj2-21" value="" style="endArrow=classic;html=1;rounded=0;strokeColor=#B20000;fillColor=#e51400;" edge="1" parent="1">
          <mxGeometry width="50" height="50" relative="1" as="geometry">
            <mxPoint x="-330" y="150" as="sourcePoint" />
            <mxPoint x="-180" y="150" as="targetPoint" />
          </mxGeometry>
        </mxCell>
        <mxCell id="nC46mDoOltywbodtPgj2-22" value="idata_en" style="edgeLabel;html=1;align=center;verticalAlign=middle;resizable=0;points=[];" vertex="1" connectable="0" parent="nC46mDoOltywbodtPgj2-21">
          <mxGeometry x="0.0125" y="2" relative="1" as="geometry">
            <mxPoint as="offset" />
          </mxGeometry>
        </mxCell>
        <mxCell id="nC46mDoOltywbodtPgj2-24" value="" style="endArrow=classic;html=1;rounded=0;strokeColor=light-dark(#00ff00, #ededed);entryX=0;entryY=0.063;entryDx=0;entryDy=0;entryPerimeter=0;" edge="1" parent="1">
          <mxGeometry width="50" height="50" relative="1" as="geometry">
            <mxPoint x="-370" y="200" as="sourcePoint" />
            <mxPoint x="-180" y="200" as="targetPoint" />
          </mxGeometry>
        </mxCell>
        <mxCell id="nC46mDoOltywbodtPgj2-25" value="credit_inc" style="edgeLabel;html=1;align=center;verticalAlign=middle;resizable=0;points=[];" vertex="1" connectable="0" parent="nC46mDoOltywbodtPgj2-24">
          <mxGeometry x="0.0125" y="2" relative="1" as="geometry">
            <mxPoint as="offset" />
          </mxGeometry>
        </mxCell>
        <mxCell id="nC46mDoOltywbodtPgj2-26" value="" style="endArrow=classic;html=1;rounded=0;strokeColor=light-dark(#00ff00, #ededed);entryX=0;entryY=0.063;entryDx=0;entryDy=0;entryPerimeter=0;" edge="1" parent="1">
          <mxGeometry width="50" height="50" relative="1" as="geometry">
            <mxPoint x="-370" y="220" as="sourcePoint" />
            <mxPoint x="-180" y="220" as="targetPoint" />
          </mxGeometry>
        </mxCell>
        <mxCell id="nC46mDoOltywbodtPgj2-27" value="ocredit_rel" style="edgeLabel;html=1;align=center;verticalAlign=middle;resizable=0;points=[];" vertex="1" connectable="0" parent="nC46mDoOltywbodtPgj2-26">
          <mxGeometry x="0.0125" y="2" relative="1" as="geometry">
            <mxPoint as="offset" />
          </mxGeometry>
        </mxCell>
        <mxCell id="nC46mDoOltywbodtPgj2-28" value="" style="endArrow=classic;html=1;rounded=0;strokeColor=light-dark(#00ff00, #ededed);" edge="1" parent="1">
          <mxGeometry width="50" height="50" relative="1" as="geometry">
            <mxPoint x="-50" y="230" as="sourcePoint" />
            <mxPoint x="90" y="230" as="targetPoint" />
          </mxGeometry>
        </mxCell>
        <mxCell id="nC46mDoOltywbodtPgj2-29" value="credits" style="edgeLabel;html=1;align=center;verticalAlign=middle;resizable=0;points=[];" vertex="1" connectable="0" parent="nC46mDoOltywbodtPgj2-28">
          <mxGeometry x="0.0125" y="2" relative="1" as="geometry">
            <mxPoint as="offset" />
          </mxGeometry>
        </mxCell>
        <mxCell id="nC46mDoOltywbodtPgj2-30" value="" style="endArrow=classic;html=1;rounded=0;strokeColor=light-dark(#00ff00, #ededed);entryX=0;entryY=0.063;entryDx=0;entryDy=0;entryPerimeter=0;" edge="1" parent="1">
          <mxGeometry width="50" height="50" relative="1" as="geometry">
            <mxPoint x="-370" y="240" as="sourcePoint" />
            <mxPoint x="-180" y="240" as="targetPoint" />
          </mxGeometry>
        </mxCell>
        <mxCell id="nC46mDoOltywbodtPgj2-31" value="block_credit_rel" style="edgeLabel;html=1;align=center;verticalAlign=middle;resizable=0;points=[];" vertex="1" connectable="0" parent="nC46mDoOltywbodtPgj2-30">
          <mxGeometry x="0.0125" y="2" relative="1" as="geometry">
            <mxPoint as="offset" />
          </mxGeometry>
        </mxCell>
        <mxCell id="nC46mDoOltywbodtPgj2-32" value="RTL_DSM_AGGR_TRIM" style="rounded=0;whiteSpace=wrap;html=1;fillColor=#fff2cc;strokeColor=#d6b656;" vertex="1" parent="1">
          <mxGeometry x="-690" y="-190" width="160" height="420" as="geometry" />
        </mxCell>
        <mxCell id="nC46mDoOltywbodtPgj2-33" value="RTL_DSM_AGGR_TRIM" style="rounded=0;whiteSpace=wrap;html=1;fillColor=#fff2cc;strokeColor=#d6b656;" vertex="1" parent="1">
          <mxGeometry x="1520" y="290" width="160" height="420" as="geometry" />
        </mxCell>
        <mxCell id="nC46mDoOltywbodtPgj2-34" value="RTL_LSC_CONV" style="rounded=0;whiteSpace=wrap;html=1;fillColor=#fff2cc;strokeColor=#d6b656;" vertex="1" parent="1">
          <mxGeometry x="1520" y="-200" width="160" height="420" as="geometry" />
        </mxCell>
      </root>
    </mxGraphModel>
  </diagram>
</mxfile>
